<svg width="404" height="110" viewBox="0 0 404 110" fill="none" xmlns="http://www.w3.org/2000/svg">
<rect width="404" height="110" fill="#FF3700"/>
<path d="M38.8112 28L33 80.9122H47.6809L51.3511 47.5745L76.7367 77.242C84.9947 83.9708 90.8058 79.6888 91.4175 70.2075L96.0053 28H81.0186L77.6543 57.3617C71.8431 50.3271 59.3032 35.0346 56.2447 31.6702C53.7979 28.2447 51.3511 28.3059 50.1277 28H38.8112Z" fill="white"/>
<circle cx="59.3032" cy="73.2661" r="7.95213" fill="white"/>
<path d="M179.65 44V65H171.79L166.51 47.72H165.82V65H161.8V44H169.39L174.79 61.28H175.63V44H179.65ZM197.135 44.09H201.155V58.19C201.155 59.41 200.895 60.49 200.375 61.43C199.855 62.35 199.175 63.12 198.335 63.74C197.495 64.34 196.535 64.79 195.455 65.09C194.375 65.41 193.275 65.57 192.155 65.57C191.015 65.57 189.895 65.41 188.795 65.09C187.695 64.79 186.715 64.33 185.855 63.71C185.015 63.07 184.325 62.28 183.785 61.34C183.265 60.4 183.005 59.31 183.005 58.07V44H187.025V56.9C187.045 57.68 187.195 58.36 187.475 58.94C187.775 59.52 188.165 60 188.645 60.38C189.125 60.76 189.665 61.05 190.265 61.25C190.865 61.43 191.475 61.52 192.095 61.52C192.735 61.52 193.355 61.43 193.955 61.25C194.575 61.05 195.125 60.76 195.605 60.38C196.085 59.98 196.465 59.5 196.745 58.94C197.025 58.36 197.155 57.7 197.135 56.96V44.09ZM218.645 61.28V65H204.515V44H208.535V61.28H218.645ZM234.787 61.28V65H220.657V44H224.677V61.28H234.787ZM245.903 43.58C247.523 43.58 248.973 43.87 250.253 44.45C251.553 45.01 252.653 45.78 253.553 46.76C254.473 47.74 255.173 48.9 255.653 50.24C256.133 51.56 256.373 52.98 256.373 54.5C256.373 56.02 256.133 57.45 255.653 58.79C255.173 60.11 254.473 61.26 253.553 62.24C252.653 63.22 251.553 64 250.253 64.58C248.973 65.14 247.523 65.42 245.903 65.42C244.283 65.42 242.823 65.14 241.523 64.58C240.223 64 239.113 63.22 238.193 62.24C237.293 61.26 236.603 60.11 236.123 58.79C235.643 57.45 235.403 56.02 235.403 54.5C235.403 52.98 235.643 51.56 236.123 50.24C236.603 48.9 237.293 47.74 238.193 46.76C239.113 45.78 240.223 45.01 241.523 44.45C242.823 43.87 244.283 43.58 245.903 43.58ZM245.903 61.49C246.883 61.49 247.763 61.31 248.543 60.95C249.323 60.59 249.983 60.1 250.523 59.48C251.063 58.84 251.473 58.1 251.753 57.26C252.053 56.4 252.203 55.48 252.203 54.5C252.203 53.52 252.053 52.61 251.753 51.77C251.473 50.91 251.063 50.17 250.523 49.55C249.983 48.91 249.323 48.41 248.543 48.05C247.763 47.69 246.883 47.51 245.903 47.51C244.923 47.51 244.043 47.69 243.263 48.05C242.483 48.41 241.813 48.91 241.253 49.55C240.713 50.17 240.293 50.91 239.993 51.77C239.713 52.61 239.573 53.52 239.573 54.5C239.573 55.48 239.713 56.4 239.993 57.26C240.293 58.1 240.713 58.84 241.253 59.48C241.813 60.1 242.483 60.59 243.263 60.95C244.043 61.31 244.923 61.49 245.903 61.49ZM276.945 44V65H269.085L263.805 47.72H263.115V65H259.095V44H266.685L272.085 61.28H272.925V44H276.945ZM294.67 61.25V65H280.54V44H294.37V47.72H284.56V52.58H292.72V56.15H284.56V61.25H294.67ZM319.075 61.28V65H304.945V44H308.965V61.28H319.075ZM338.337 64.88H334.167L333.087 61.1H324.777L323.697 64.88H319.527L325.587 44H332.277L338.337 64.88ZM332.007 57.23L329.307 47.72H328.557L325.857 57.23H332.007ZM353.054 53.99C354.254 54.51 355.084 55.27 355.544 56.27C356.024 57.25 356.264 58.35 356.264 59.57C356.264 60.31 356.154 61.01 355.934 61.67C355.734 62.31 355.394 62.88 354.914 63.38C354.454 63.88 353.854 64.28 353.114 64.58C352.394 64.86 351.514 65 350.474 65H340.364V44H349.274C350.234 44 351.074 44.15 351.794 44.45C352.534 44.75 353.154 45.16 353.654 45.68C354.154 46.18 354.524 46.76 354.764 47.42C355.004 48.06 355.124 48.73 355.124 49.43C355.104 50.39 354.954 51.27 354.674 52.07C354.394 52.85 353.854 53.49 353.054 53.99ZM344.384 52.58H348.074C349.074 52.58 349.814 52.36 350.294 51.92C350.774 51.48 351.014 50.87 351.014 50.09C351.014 49.79 350.964 49.5 350.864 49.22C350.784 48.94 350.634 48.69 350.414 48.47C350.194 48.23 349.904 48.05 349.544 47.93C349.184 47.79 348.724 47.72 348.164 47.72H344.384V52.58ZM349.514 61.28C349.974 61.28 350.364 61.21 350.684 61.07C351.024 60.93 351.294 60.74 351.494 60.5C351.714 60.26 351.874 59.99 351.974 59.69C352.094 59.39 352.154 59.08 352.154 58.76C352.154 58.42 352.104 58.1 352.004 57.8C351.924 57.48 351.774 57.2 351.554 56.96C351.354 56.72 351.074 56.53 350.714 56.39C350.354 56.23 349.904 56.15 349.364 56.15H344.384V61.28H349.514ZM362.566 49.85C362.566 50.55 362.716 51.1 363.016 51.5C363.316 51.88 363.706 52.17 364.186 52.37C364.686 52.57 365.246 52.72 365.866 52.82C366.486 52.9 367.126 53 367.786 53.12C368.446 53.22 369.086 53.37 369.706 53.57C370.326 53.77 370.876 54.09 371.356 54.53C371.856 54.95 372.256 55.52 372.556 56.24C372.856 56.96 373.006 57.9 373.006 59.06C373.006 60.22 372.866 61.18 372.586 61.94C372.326 62.7 371.906 63.31 371.326 63.77C370.766 64.21 370.046 64.53 369.166 64.73C368.306 64.91 367.276 65 366.076 65H358.696V61.1H366.076C366.676 61.08 367.146 61.03 367.486 60.95C367.846 60.87 368.116 60.74 368.296 60.56C368.496 60.38 368.626 60.15 368.686 59.87C368.746 59.59 368.776 59.24 368.776 58.82C368.776 58.34 368.616 57.96 368.296 57.68C367.996 57.4 367.596 57.18 367.096 57.02C366.616 56.86 366.066 56.72 365.446 56.6C364.826 56.48 364.186 56.34 363.526 56.18C362.886 56.02 362.256 55.81 361.636 55.55C361.016 55.29 360.466 54.92 359.986 54.44C359.506 53.96 359.116 53.35 358.816 52.61C358.516 51.87 358.366 50.95 358.366 49.85C358.366 47.83 358.926 46.35 360.046 45.41C361.186 44.47 362.706 44 364.606 44H372.316V47.9H364.606C363.966 47.9 363.466 48.09 363.106 48.47C362.746 48.83 362.566 49.29 362.566 49.85Z" fill="white"/>
</svg>
